<mxfile host="app.diagrams.net" modified="2024-06-22T14:22:46.537Z" agent="Mozilla/5.0 (Windows NT 10.0; Win64; x64) AppleWebKit/537.36 (KHTML, like Gecko) Chrome/125.0.0.0 Safari/537.36" version="24.6.2" etag="PUTahVgyKlrfu4K1Ya1j" type="github">
  <diagram name="Page-1" id="4_6mLrfxc3uVnWjeRpNb">
    <mxGraphModel>
      <root>
        <mxCell id="0" />
        <mxCell id="1" parent="0" />
      </root>
    </mxGraphModel>
  </diagram>
</mxfile>
